<?xml version="1.0" ?><svg xmlns="http://www.w3.org/2000/svg" width="24" height="24" viewBox="0 0 24 24" fill="none"><path fill-rule="evenodd" clip-rule="evenodd" d="M22 12C22 6.47715 17.5228 2 12 2C6.47715 2 2 6.47715 2 12C2 17.5228 6.47715 22 12 22C17.5228 22 22 17.5228 22 12ZM13 4.06189V10C13 10.5523 13.4477 11 14 11H19.9381C19.4869 7.38128 16.6187 4.51314 13 4.06189ZM19.9381 13H14C12.3431 13 11 11.6569 11 10V4.06189C7.05369 4.55399 4 7.92038 4 12C4 16.4183 7.58172 20 12 20C16.0796 20 19.446 16.9463 19.9381 13Z" fill="#0D4DDF"/></svg>