<?xml version="1.0" ?><svg xmlns="http://www.w3.org/2000/svg" width="24" height="24" viewBox="0 0 24 24" fill="none"><path d="M11.286 21.7001C11.286 21.7001 11.2862 21.7004 12 21C12.7138 21.7004 12.7145 21.6997 12.7145 21.6997C12.5264 21.8913 12.2685 22 12 22C11.7315 22 11.474 21.8918 11.286 21.7001Z" fill="#0D4DDF"/><path fill-rule="evenodd" clip-rule="evenodd" d="M12 7C10.3431 7 9 8.34315 9 10C9 11.6569 10.3431 13 12 13C13.6569 13 15 11.6569 15 10C15 8.34315 13.6569 7 12 7ZM11 10C11 9.44772 11.4477 9 12 9C12.5523 9 13 9.44772 13 10C13 10.5523 12.5523 11 12 11C11.4477 11 11 10.5523 11 10Z" fill="#0D4DDF"/><path fill-rule="evenodd" clip-rule="evenodd" d="M11.286 21.7001L12 21L12.7145 21.6997L12.7204 21.6937L12.7369 21.6767L12.7986 21.6129C12.8521 21.5574 12.9296 21.4765 13.0277 21.3726C13.2239 21.1649 13.5029 20.8652 13.8371 20.4938C14.5045 19.7523 15.3968 18.7198 16.2916 17.5608C17.1835 16.4056 18.0938 15.104 18.7857 13.8257C19.4617 12.5767 20 11.2239 20 10C20 5.58172 16.4183 2 12 2C7.58172 2 4 5.58172 4 10C4 11.2239 4.53828 12.5767 5.21431 13.8257C5.90617 15.104 6.81655 16.4056 7.70845 17.5608C8.60322 18.7198 9.49555 19.7523 10.1629 20.4938C10.4971 20.8652 10.7761 21.1649 10.9723 21.3726C11.0704 21.4765 11.1479 21.5574 11.2014 21.6129L11.2631 21.6767L11.2796 21.6937L11.286 21.7001ZM6 10C6 6.68629 8.68629 4 12 4C15.3137 4 18 6.68629 18 10C18 10.7091 17.6633 11.6978 17.0268 12.8737C16.4062 14.0204 15.5665 15.2272 14.7084 16.3386C13.8532 17.4464 12.9955 18.4391 12.3504 19.156C12.2249 19.2955 12.1075 19.4244 12 19.5414C11.8925 19.4244 11.7751 19.2955 11.6496 19.156C11.0045 18.4391 10.1468 17.4464 9.29155 16.3386C8.43345 15.2272 7.59383 14.0204 6.9732 12.8737C6.33672 11.6978 6 10.7091 6 10Z" fill="#0D4DDF"/></svg>